<svg width="49" height="50" viewBox="0 0 49 50" fill="none" xmlns="http://www.w3.org/2000/svg">
<path d="M31.0091 25.0034L45.6478 10.0371C47.4418 8.20299 47.4418 5.20974 45.6478 3.3756C43.8538 1.54147 40.9261 1.54147 39.1321 3.3756L24.5 18.3419L9.86124 3.3756C8.06725 1.54147 5.1395 1.54147 3.3455 3.3756C1.5515 5.20974 1.5515 8.20299 3.3455 10.0371L17.9843 25.0034L3.3455 39.9629C1.5515 41.797 1.5515 44.7903 3.3455 46.6244C5.1395 48.4585 8.06725 48.4585 9.86124 46.6244L24.5 31.6581L39.1388 46.6244C40.9328 48.4585 43.8605 48.4585 45.6545 46.6244C47.4485 44.7903 47.4485 41.797 45.6545 39.9629L31.0091 25.0034Z" stroke="white" stroke-width="4" stroke-miterlimit="10"/>
</svg>
