<svg width="60" height="60" viewBox="0 0 60 60" fill="none" xmlns="http://www.w3.org/2000/svg">
<path opacity="0.4" d="M30 6.43738e-06C13.4315 7.88585e-06 -2.56454e-07 13.4315 1.19201e-06 30C2.64048e-06 46.5685 13.4315 60 30 60C46.5685 60 60 46.5685 60 30C60 13.4315 46.5685 4.98891e-06 30 6.43738e-06Z" fill="white"/>
<path d="M28.8316 19.6997L15.9421 11.8857C13.3889 10.3362 10.3827 13.049 11.6593 15.7463L27.4366 49.1386C28.3477 51.0638 31.0759 51.0946 32.0282 49.1849L48.31 16.4927C49.6278 13.8469 46.74 11.0826 44.1559 12.5188L31.1326 19.7408C30.4119 20.1423 29.5317 20.1218 28.8316 19.6997Z" stroke="white" stroke-width="3" stroke-miterlimit="10"/>
</svg>
