<svg width="60" height="60" viewBox="0 0 60 60" fill="none" xmlns="http://www.w3.org/2000/svg">
<path opacity="0.4" d="M30 60C46.5685 60 60 46.5685 60 30C60 13.4314 46.5685 -8.1423e-06 30 -5.24537e-06C13.4315 -2.34843e-06 2.34843e-06 13.4315 5.24537e-06 30C8.1423e-06 46.5685 13.4315 60 30 60Z" fill="white"/>
<path d="M31.1684 40.3003L44.0579 48.1143C46.6111 49.6638 49.6173 46.951 48.3407 44.2537L32.5634 10.8614C31.6523 8.93624 28.9241 8.90536 27.9718 10.8151L11.69 43.5073C10.3723 46.1531 13.26 48.9174 15.8441 47.4812L28.8674 40.2592C29.5881 39.8577 30.4683 39.8782 31.1684 40.3003Z" stroke="white" stroke-width="3" stroke-miterlimit="10"/>
</svg>
