<svg width="50" height="50" viewBox="0 0 50 50" fill="none" xmlns="http://www.w3.org/2000/svg">
<g clip-path="url(#clip0_28_173)">
<path opacity="0.4" d="M24.9979 49.9957C38.8038 49.9957 49.9957 38.8038 49.9957 24.9979C49.9957 11.1919 38.8038 0 24.9979 0C11.1919 0 0 11.1919 0 24.9979C0 38.8038 11.1919 49.9957 24.9979 49.9957Z" fill="white"/>
<path fill="none" d="M41.5587 29.137V37.0936C41.5587 37.8871 40.9067 38.5305 40.1003 38.5305H9.91245C9.10607 38.5305 8.4541 37.8871 8.4541 37.0936V13.3525C8.4541 12.559 9.10607 11.9156 9.91245 11.9156H40.1046C40.911 11.9156 41.563 12.559 41.563 13.3525V21.6694" stroke="white" stroke-width="3" stroke-miterlimit="10"/>
<path fill="none" d="M42.8155 29.1799H29.7161C29.3301 29.1799 29.0212 28.8668 29.0212 28.4851V22.4329C29.0212 22.0469 29.3344 21.738 29.7161 21.738H42.8155C43.2016 21.738 43.5104 22.0512 43.5104 22.4329V28.4808C43.5147 28.8668 43.2016 29.1799 42.8155 29.1799Z" stroke="white" stroke-width="3" stroke-miterlimit="10"/>
</g>
<defs>
<clipPath id="clip0_28_173">
<rect width="50" height="50" fill="white"/>
</clipPath>
</defs>
</svg>
